<svg width="16" height="16" viewBox="0 0 16 16" fill="none" xmlns="http://www.w3.org/2000/svg">
<path fill-rule="evenodd" clip-rule="evenodd" d="M9.88546 8.00017L15.6093 2.27629C16.1307 1.75496 16.1307 0.912314 15.6093 0.390992C15.088 -0.130331 14.2454 -0.130331 13.724 0.390992L8.00017 6.11487L2.27629 0.390992C1.75496 -0.130331 0.912314 -0.130331 0.390992 0.390992C-0.130331 0.912314 -0.130331 1.75496 0.390992 2.27629L6.11487 8.00017L0.390992 13.724C-0.130331 14.2454 -0.130331 15.088 0.390992 15.6093C0.650986 15.8693 0.992313 16 1.33364 16C1.67497 16 2.01629 15.8693 2.27629 15.6093L8.00017 9.88546L13.724 15.6093C13.984 15.8693 14.3254 16 14.6667 16C15.008 16 15.3493 15.8693 15.6093 15.6093C16.1307 15.088 16.1307 14.2454 15.6093 13.724L9.88546 8.00017Z" fill="#333F48"/>
</svg>
